# xmcd
#
# Track frame offsets:
# 150
# 11135
# 28840
# 37918
# 45865
# 59900
# 78805
# 103241
# 112782
# 126500
# 145070
# 167205
# 196400
# 222575
#
# Disc length: 3298 seconds
#
#
# Revision: 0
# Processed by: cddbd v1.5.1PL2 Copyright (c) Steve Scherf et al.
# Submitted via: FreeRIP 2.944 
#
DISCID=c60ce00e
DTITLE=Paul Wilbur/ cv. esp. Cristina Mel - Levanta-te Jerusalém!
DYEAR=2002
DGENRE=Gospel
TTITLE0=01 - Abertura Levanta-te Jerusal´m Shalom Jerusalém
TTITLE1=02 - O Jah
TTITLE2=03 - Levanteate Ó Deus
TTITLE3=04 - É Tão Bom
TTITLE4=05 - Roni Roni Bat Sion - Levanteate Ó Deus (Reprise)
TTITLE5=06 - Louve Adonai
TTITLE6=07 - Coroado És Tu
TTITLE7=08 - O Grito Do Grande El Shaddai
TTITLE8=09 - A Vitória Está - O Grito Do Grande El Shaddai (Reprise)
TTITLE9=10 - Sejas Bendito
TTITLE10=11- Vem Com O Peso Da Tua Gloria
TTITLE11=12 - Pois Teu Nome É Santo - Vem Com O Peso Da Tua Gloria (Reprise)
TTITLE12=13 - Kadosh
TTITLE13=14 - Dias De Elias -  Kadosh (Reprise)
EXTD=
EXTT0=
EXTT1=
EXTT2=
EXTT3=
EXTT4=
EXTT5=
EXTT6=
EXTT7=
EXTT8=
EXTT9=
EXTT10=
EXTT11=
EXTT12=
EXTT13=
PLAYORDER=
